HIERARCHY
ROOT joint_Root
{
	OFFSET 0.0 0.0 0.0
	CHANNELS 6 Xposition Yposition Zposition Zrotation Xrotation Yrotation 
	JOINT Hips
	{
		OFFSET 4.5925 91.4895 -427.239
		CHANNELS 6 Xposition Yposition Zposition Zrotation Xrotation Yrotation 
		JOINT Spine
		{
			OFFSET 15.7357 0.0 0.0
			CHANNELS 6 Xposition Yposition Zposition Zrotation Xrotation Yrotation 
			JOINT Chest
			{
				OFFSET 8.98455 -0.406207 0.0
				CHANNELS 6 Xposition Yposition Zposition Zrotation Xrotation Yrotation 
				JOINT Neck
				{
					OFFSET 16.3773 0.0 0.0
					CHANNELS 6 Xposition Yposition Zposition Zrotation Xrotation Yrotation 
					JOINT Head
					{
						OFFSET 6.45672 0.0 0.0
						CHANNELS 6 Xposition Yposition Zposition Zrotation Xrotation Yrotation 
						End Site
						{
							OFFSET 0.0 0.0 0.0
						}
					}
				}
				JOINT Shoulder_L
				{
					OFFSET 12.9942 -0.242716 4.98039
					CHANNELS 6 Xposition Yposition Zposition Zrotation Xrotation Yrotation 
					JOINT UpperArm_L
					{
						OFFSET 5.34809 0.0 0.0
						CHANNELS 6 Xposition Yposition Zposition Zrotation Xrotation Yrotation 
						JOINT LowerArm_L
						{
							OFFSET 24.3286 1.87007e-05 0.0
							CHANNELS 6 Xposition Yposition Zposition Zrotation Xrotation Yrotation 
							JOINT Hand_L
							{
								OFFSET 22.2916 0.0 0.0
								CHANNELS 6 Xposition Yposition Zposition Zrotation Xrotation Yrotation 
								End Site
								{
									OFFSET 0.0 0.0 0.0
								}
							}
						}
					}
				}
				JOINT Shoulder_R
				{
					OFFSET 12.9945 -0.242716 -4.98039
					CHANNELS 6 Xposition Yposition Zposition Zrotation Xrotation Yrotation 
					JOINT UpperArm_R
					{
						OFFSET -5.34813 0.0 0.0
						CHANNELS 6 Xposition Yposition Zposition Zrotation Xrotation Yrotation 
						JOINT LowerArm_R
						{
							OFFSET -24.3289 0.000322201 0.0
							CHANNELS 6 Xposition Yposition Zposition Zrotation Xrotation Yrotation 
							JOINT Hand_R
							{
								OFFSET -22.2915 -0.000108084 0.0
								CHANNELS 6 Xposition Yposition Zposition Zrotation Xrotation Yrotation 
								End Site
								{
									OFFSET 0.0 0.0 0.0
								}
							}
						}
					}
				}
			}
		}
		JOINT UpperLeg_L
		{
			OFFSET -2.19248 -6.46944 0.0
			CHANNELS 6 Xposition Yposition Zposition Zrotation Xrotation Yrotation 
			JOINT LowerLeg_L
			{
				OFFSET 39.0811 0.0 -1.23785e-05
				CHANNELS 6 Xposition Yposition Zposition Zrotation Xrotation Yrotation 
				JOINT Foot_L
				{
					OFFSET 40.9854 0.0 -1.26872e-05
					CHANNELS 6 Xposition Yposition Zposition Zrotation Xrotation Yrotation 
					JOINT Toes_L
					{
						OFFSET 11.7543 0.0 0.0
						CHANNELS 6 Xposition Yposition Zposition Zrotation Xrotation Yrotation 
						End Site
						{
							OFFSET 0.0 0.0 0.0
						}
					}
				}
			}
		}
		JOINT UpperLeg_R
		{
			OFFSET -2.19251 6.46944 0.0
			CHANNELS 6 Xposition Yposition Zposition Zrotation Xrotation Yrotation 
			JOINT LowerLeg_R
			{
				OFFSET -39.0811 -0.00228153 -0.0401928
				CHANNELS 6 Xposition Yposition Zposition Zrotation Xrotation Yrotation 
				JOINT Foot_R
				{
					OFFSET -40.9854 0.0 0.0
					CHANNELS 6 Xposition Yposition Zposition Zrotation Xrotation Yrotation 
					JOINT Toes_R
					{
						OFFSET -11.7543 0.0 0.0
						CHANNELS 6 Xposition Yposition Zposition Zrotation Xrotation Yrotation 
						End Site
						{
							OFFSET 0.0 0.0 0.0
						}
					}
				}
			}
		}
	}
}
MOTION
Frames:	7
Frame Time:	0.0333333
0.000000 0.000000 0.000000 0.000000 0.000000 -0.000000 -3.742960 79.016800 483.175000 -90.712600 -2.585810 160.888000 15.735700 0.000005 -0.000001 77.909500 79.565800 -80.720000 8.984550 -0.406207 -0.000000 12.562600 -4.446750 -5.132440 16.377300 -0.000001 -0.000001 -5.995740 -2.883800 1.599000 6.456720 -0.000001 -0.000000 -12.799200 -0.469589 7.063980 12.994200 -0.242716 4.980390 -89.782700 -1.633960 -82.410300 5.348090 -0.000007 -0.000001 -66.457200 -0.771315 -38.657800 24.328600 0.000019 0.000005 16.311600 6.813390 -67.925200 22.291600 -0.000001 0.000005 9.355990 5.512990 -7.066140 12.994500 -0.242716 -4.980390 88.588100 6.487060 -77.685100 -5.348130 -0.000001 -0.000004 -62.325700 29.476100 1.652200 -24.328900 0.000322 -0.000009 0.518532 2.168410 -13.503400 -22.291500 -0.000108 -0.000004 10.558600 5.500290 -6.551200 -2.192480 -6.469440 -0.000000 176.623000 -7.968080 -41.302000 39.081100 -0.000007 -0.000012 0.053076 -0.021866 67.604400 40.985400 -0.000006 -0.000013 1.601550 -3.572280 -94.177300 11.754300 -0.000000 0.000003 -0.761444 -0.929639 -17.753500 -2.192510 6.469440 -0.000001 174.508000 8.065040 150.557000 -39.081100 -0.002282 -0.040193 0.510018 0.065830 97.412000 -40.985400 0.000008 0.000006 -11.015000 13.934900 -33.166700 -11.754300 -0.000006 -0.000006 -0.019867 -0.166552 -23.377500
0.000000 0.000000 0.000000 0.000000 0.000000 -0.000000 -3.955300 79.663900 475.889000 -89.295200 -4.636740 160.483000 15.735700 0.000005 -0.000001 71.502900 79.880100 -73.245300 8.984550 -0.406207 -0.000000 11.384000 -6.424840 -2.844930 16.377300 -0.000001 -0.000001 -5.639370 -2.760910 1.732170 6.456720 -0.000001 -0.000000 -11.853300 0.861751 7.229470 12.994200 -0.242716 4.980390 -89.031900 -7.113770 -82.235200 5.348090 -0.000007 -0.000001 -66.060900 -4.013730 -45.929600 24.328600 0.000019 0.000005 14.537800 2.504920 -80.473400 22.291600 -0.000001 0.000005 9.471030 5.508170 -6.864200 12.994500 -0.242716 -4.980390 89.170100 3.093090 -74.951200 -5.348130 -0.000001 -0.000004 -59.661600 27.740800 9.535670 -24.328900 0.000322 -0.000009 1.045760 5.075640 -11.662000 -22.291500 -0.000108 -0.000004 8.212550 5.491290 -6.178930 -2.192480 -6.469440 -0.000000 179.570000 -7.861850 -33.794100 39.081100 -0.000007 -0.000012 0.032692 -0.016878 62.687700 40.985400 -0.000006 -0.000013 1.313090 -1.967470 -94.599000 11.754300 -0.000000 0.000003 -1.211150 -1.415290 -20.070300 -2.192510 6.469440 -0.000001 177.856000 8.507880 136.089000 -39.081100 -0.002282 -0.040193 0.445247 0.195187 113.840000 -40.985400 0.000008 0.000006 -4.999690 9.205690 -39.405300 -11.754300 -0.000006 -0.000006 -0.020466 -0.169859 -23.513800
0.000000 0.000000 0.000000 0.000000 0.000000 -0.000000 -3.882950 81.219500 467.195000 -86.796200 -5.057890 161.207000 15.735700 0.000005 -0.000001 66.736600 79.842700 -67.263400 8.984550 -0.406207 -0.000000 10.937700 -7.978780 -0.289192 16.377300 -0.000001 -0.000001 -4.830300 -1.925460 1.604440 6.456720 -0.000001 -0.000000 -10.959800 2.466910 7.278110 12.994200 -0.242716 4.980390 -88.089900 -12.018200 -80.902800 5.348090 -0.000007 -0.000001 -66.116600 -8.683800 -49.042900 24.328600 0.000019 0.000005 10.218800 -0.219318 -91.219500 22.291600 -0.000001 0.000005 9.458870 5.511280 -6.992670 12.994500 -0.242716 -4.980390 89.868700 0.417994 -72.464400 -5.348130 -0.000001 -0.000004 -53.156500 24.837600 15.183200 -24.328900 0.000322 -0.000009 2.216160 8.036840 -15.489500 -22.291500 -0.000108 -0.000004 8.048350 5.491740 -6.210600 -2.192480 -6.469440 -0.000000 -176.161000 -10.056200 -22.208800 39.081100 -0.000007 -0.000012 0.004939 -0.003737 52.863700 40.985400 -0.000006 -0.000013 1.055570 0.414412 -91.737300 11.754300 -0.000000 0.000003 -0.018430 -0.158445 -23.047500 -2.192510 6.469440 -0.000001 -177.098000 7.910650 125.793000 -39.081100 -0.002282 -0.040193 0.201428 0.126513 122.583000 -40.985400 0.000008 0.000006 3.059780 -1.131140 -47.969700 -11.754300 -0.000006 -0.000006 -0.020280 -0.168837 -23.471600
0.000000 0.000000 0.000000 0.000000 0.000000 -0.000000 -3.733560 83.981700 457.594000 -84.173900 -6.659720 160.797000 15.735700 0.000005 -0.000001 59.837500 79.956400 -58.742500 8.984550 -0.406207 -0.000000 9.809530 -10.013100 3.054160 16.377300 -0.000001 -0.000001 -3.503510 -1.032440 1.427580 6.456720 -0.000001 -0.000000 -9.947110 4.362930 6.891050 12.994200 -0.242716 4.980390 -87.243900 -15.373300 -79.709000 5.348090 -0.000007 -0.000001 -65.868400 -12.429000 -47.978400 24.328600 0.000019 0.000005 10.677200 -2.028470 -100.627000 22.291600 -0.000001 0.000005 6.775780 5.492350 -6.217480 12.994500 -0.242716 -4.980390 90.856000 -2.395520 -70.349500 -5.348130 -0.000001 -0.000004 -48.066100 25.467600 20.109200 -24.328900 0.000322 -0.000009 1.611720 4.092260 -21.584600 -22.291500 -0.000108 -0.000004 8.248130 5.537950 -8.155110 -2.192480 -6.469440 -0.000000 -171.325000 -9.964700 -10.998400 39.081100 -0.000007 -0.000012 -0.019655 0.023932 39.399400 40.985400 -0.000006 -0.000013 -0.490869 2.451790 -80.228800 11.754300 -0.000000 0.000003 -0.087543 -0.412550 -33.738900 -2.192510 6.469440 -0.000001 -171.447000 7.289330 118.885000 -39.081100 -0.002282 -0.040193 0.044285 0.025886 122.390000 -40.985400 0.000008 0.000006 8.178900 -9.701840 -54.508600 -11.754300 -0.000006 -0.000006 -0.019769 -0.166008 -23.355100
0.000000 0.000000 0.000000 0.000000 0.000000 -0.000000 -3.592810 87.628700 447.799000 -82.579000 -9.916020 158.340000 15.735700 0.000005 -0.000001 50.132000 80.173600 -47.363500 8.984550 -0.406207 -0.000000 7.770730 -12.549200 6.404640 16.377300 -0.000001 -0.000001 -2.395040 -0.910595 1.612350 6.456720 -0.000001 -0.000000 -8.657760 5.982160 6.178340 12.994200 -0.242716 4.980390 -86.616800 -17.263200 -78.734600 5.348090 -0.000007 -0.000001 -64.467800 -13.404800 -45.555400 24.328600 0.000019 0.000005 11.002800 -3.663220 -108.190000 22.291600 -0.000001 0.000005 4.947290 5.469090 -5.330610 12.994500 -0.242716 -4.980390 92.487700 -6.365740 -68.609500 -5.348130 -0.000001 -0.000004 -48.064600 24.888600 25.101600 -24.328900 0.000322 -0.000009 1.001470 1.945270 -27.293200 -22.291500 -0.000108 -0.000004 7.806360 5.574530 -9.940820 -2.192480 -6.469440 -0.000000 -167.451000 -11.864200 -5.310840 39.081100 -0.000007 -0.000012 0.002282 -0.004444 27.177800 40.985400 -0.000006 -0.000013 -0.687514 5.377520 -56.957900 11.754300 -0.000000 0.000003 -0.295836 -0.784636 -51.094000 -2.192510 6.469440 -0.000001 -167.868000 6.428440 113.518000 -39.081100 -0.002282 -0.040193 0.081548 0.036493 115.067000 -40.985400 0.000008 0.000006 7.139710 -10.836600 -60.850300 -11.754300 -0.000006 -0.000006 -0.018111 -0.156593 -22.967600
0.000000 0.000000 0.000000 0.000000 0.000000 -0.000000 -3.415540 91.236600 438.061000 -83.448100 -11.659500 156.861000 15.735700 0.000005 -0.000001 44.119400 79.879000 -40.804100 8.984550 -0.406207 -0.000000 6.928510 -14.510800 7.534480 16.377300 -0.000001 -0.000001 -0.899622 -0.815459 1.899550 6.456720 -0.000001 -0.000000 -9.111130 7.123340 5.903540 12.994200 -0.242716 4.980390 -85.878800 -18.453400 -77.177300 5.348090 -0.000007 -0.000001 -62.917100 -11.803100 -44.225100 24.328600 0.000019 0.000005 11.120800 -4.983740 -113.842000 22.291600 -0.000001 0.000005 4.245940 5.449720 -4.627710 12.994500 -0.242716 -4.980390 94.282400 -10.119100 -66.919800 -5.348130 -0.000001 -0.000004 -51.734500 25.361300 29.436600 -24.328900 0.000322 -0.000009 1.535980 2.417670 -32.420600 -22.291500 -0.000108 -0.000004 6.215330 5.604710 -11.653500 -2.192480 -6.469440 -0.000000 -164.537000 -21.189900 0.369128 39.081100 -0.000007 -0.000012 0.038145 -0.142383 14.997700 40.985400 -0.000006 -0.000013 -8.728720 10.718700 -29.772100 11.754300 -0.000000 0.000003 -0.099206 -0.442596 -35.045600 -2.192510 6.469440 -0.000001 -168.252000 5.275600 111.999000 -39.081100 -0.002282 -0.040193 0.143654 0.033525 103.470000 -40.985400 0.000008 0.000006 5.053080 -8.374930 -65.954000 -11.754300 -0.000006 -0.000006 -0.017999 -0.155939 -22.940700
0.000000 0.000000 0.000000 0.000000 0.000000 -0.000000 -3.603810 93.680200 428.392000 -83.888600 -11.944600 155.731000 15.735700 0.000005 -0.000001 40.620700 79.746400 -36.892600 8.984550 -0.406207 -0.000000 6.288430 -15.573500 8.344880 16.377300 -0.000001 -0.000001 1.271070 -0.248447 1.689560 6.456720 -0.000001 -0.000000 -10.075700 7.928950 5.498910 12.994200 -0.242716 4.980390 -84.813900 -19.997200 -75.137600 5.348090 -0.000007 -0.000001 -61.826000 -8.674200 -42.736100 24.328600 0.000019 0.000005 11.134100 -5.967460 -117.844000 22.291600 -0.000001 0.000005 3.429830 5.435230 -4.118130 12.994500 -0.242716 -4.980390 96.095200 -13.681800 -65.703200 -5.348130 -0.000001 -0.000004 -56.633500 27.365800 34.044700 -24.328900 0.000322 -0.000009 3.555180 4.256130 -39.919700 -22.291500 -0.000108 -0.000004 5.610420 5.623950 -12.891700 -2.192480 -6.469440 -0.000000 -161.141000 -28.336000 5.226930 39.081100 -0.000007 -0.000012 0.062476 -0.289399 12.182200 40.985400 -0.000006 -0.000013 -15.131800 7.357200 -24.963200 11.754300 -0.000000 0.000003 -0.002512 -0.034953 -17.998100 -2.192510 6.469440 -0.000001 -168.805000 4.496360 112.638000 -39.081100 -0.002282 -0.040193 0.124992 -0.001532 89.318500 -40.985400 0.000008 0.000006 3.681280 -5.320380 -70.035800 -11.754300 -0.000006 -0.000006 -0.017195 -0.151224 -22.746800
